<mxfile host="app.diagrams.net" modified="2021-11-28T21:17:23.784Z" agent="5.0 (Macintosh; Intel Mac OS X 10_15_7) AppleWebKit/537.36 (KHTML, like Gecko) Chrome/96.0.4664.55 Safari/537.36" etag="-AaIRyy9HngsxTep4vn-" version="15.8.6" type="github">
  <diagram id="fJnAEIDHOc6Mx4Kcd6Wd" name="Page-1">
    <mxGraphModel dx="1283" dy="1604" grid="1" gridSize="10" guides="1" tooltips="1" connect="1" arrows="1" fold="1" page="1" pageScale="1" pageWidth="850" pageHeight="1100" math="0" shadow="0">
      <root>
        <mxCell id="0" />
        <mxCell id="1" parent="0" />
        <mxCell id="zn_b5Ai_2JYmIyx7-05i-30" style="edgeStyle=orthogonalEdgeStyle;rounded=0;orthogonalLoop=1;jettySize=auto;html=1;entryX=0;entryY=0.5;entryDx=0;entryDy=0;" parent="1" source="zn_b5Ai_2JYmIyx7-05i-1" target="zn_b5Ai_2JYmIyx7-05i-5" edge="1">
          <mxGeometry relative="1" as="geometry" />
        </mxCell>
        <mxCell id="zn_b5Ai_2JYmIyx7-05i-1" value="社会经济危机总览" style="rounded=1;whiteSpace=wrap;html=1;" parent="1" vertex="1">
          <mxGeometry x="140" y="-190" width="120" height="60" as="geometry" />
        </mxCell>
        <mxCell id="zn_b5Ai_2JYmIyx7-05i-4" value="&lt;span&gt;东汉统治的危机&lt;/span&gt;" style="shape=ext;double=1;rounded=1;whiteSpace=wrap;html=1;" parent="1" vertex="1">
          <mxGeometry y="-200" width="120" height="80" as="geometry" />
        </mxCell>
        <mxCell id="zn_b5Ai_2JYmIyx7-05i-19" style="edgeStyle=orthogonalEdgeStyle;rounded=0;orthogonalLoop=1;jettySize=auto;html=1;entryX=0.5;entryY=0;entryDx=0;entryDy=0;" parent="1" source="zn_b5Ai_2JYmIyx7-05i-5" target="zn_b5Ai_2JYmIyx7-05i-6" edge="1">
          <mxGeometry relative="1" as="geometry" />
        </mxCell>
        <mxCell id="zn_b5Ai_2JYmIyx7-05i-5" value="春秋铁器技术和手工业发展" style="rounded=1;whiteSpace=wrap;html=1;" parent="1" vertex="1">
          <mxGeometry x="400" y="-550" width="160" height="60" as="geometry" />
        </mxCell>
        <mxCell id="zn_b5Ai_2JYmIyx7-05i-21" style="edgeStyle=orthogonalEdgeStyle;rounded=0;orthogonalLoop=1;jettySize=auto;html=1;" parent="1" source="zn_b5Ai_2JYmIyx7-05i-6" target="zn_b5Ai_2JYmIyx7-05i-7" edge="1">
          <mxGeometry relative="1" as="geometry" />
        </mxCell>
        <mxCell id="zn_b5Ai_2JYmIyx7-05i-6" value="商品货币和商人的发展&lt;br&gt;（编户齐民）" style="rounded=1;whiteSpace=wrap;html=1;" parent="1" vertex="1">
          <mxGeometry x="400" y="-470" width="160" height="60" as="geometry" />
        </mxCell>
        <mxCell id="zn_b5Ai_2JYmIyx7-05i-22" style="edgeStyle=orthogonalEdgeStyle;rounded=0;orthogonalLoop=1;jettySize=auto;html=1;entryX=0;entryY=0.5;entryDx=0;entryDy=0;" parent="1" source="zn_b5Ai_2JYmIyx7-05i-7" target="zn_b5Ai_2JYmIyx7-05i-8" edge="1">
          <mxGeometry relative="1" as="geometry" />
        </mxCell>
        <mxCell id="zn_b5Ai_2JYmIyx7-05i-7" value="小农经济不稳定性&lt;br&gt;借贷" style="rounded=1;whiteSpace=wrap;html=1;" parent="1" vertex="1">
          <mxGeometry x="370" y="-370" width="100" height="60" as="geometry" />
        </mxCell>
        <mxCell id="zn_b5Ai_2JYmIyx7-05i-23" style="edgeStyle=orthogonalEdgeStyle;rounded=0;orthogonalLoop=1;jettySize=auto;html=1;" parent="1" source="zn_b5Ai_2JYmIyx7-05i-8" target="zn_b5Ai_2JYmIyx7-05i-9" edge="1">
          <mxGeometry relative="1" as="geometry" />
        </mxCell>
        <mxCell id="zn_b5Ai_2JYmIyx7-05i-8" value="小农经济不稳定性&lt;br&gt;土地兼并" style="rounded=1;whiteSpace=wrap;html=1;" parent="1" vertex="1">
          <mxGeometry x="490" y="-370" width="100" height="60" as="geometry" />
        </mxCell>
        <mxCell id="zn_b5Ai_2JYmIyx7-05i-24" style="edgeStyle=orthogonalEdgeStyle;rounded=0;orthogonalLoop=1;jettySize=auto;html=1;" parent="1" source="zn_b5Ai_2JYmIyx7-05i-9" target="zn_b5Ai_2JYmIyx7-05i-10" edge="1">
          <mxGeometry relative="1" as="geometry" />
        </mxCell>
        <mxCell id="zn_b5Ai_2JYmIyx7-05i-9" value="汉代各郡国的大商贾" style="rounded=1;whiteSpace=wrap;html=1;" parent="1" vertex="1">
          <mxGeometry x="400" y="-270" width="160" height="60" as="geometry" />
        </mxCell>
        <mxCell id="zn_b5Ai_2JYmIyx7-05i-25" style="edgeStyle=orthogonalEdgeStyle;rounded=0;orthogonalLoop=1;jettySize=auto;html=1;entryX=0.5;entryY=0;entryDx=0;entryDy=0;" parent="1" source="zn_b5Ai_2JYmIyx7-05i-10" target="zn_b5Ai_2JYmIyx7-05i-11" edge="1">
          <mxGeometry relative="1" as="geometry" />
        </mxCell>
        <mxCell id="zn_b5Ai_2JYmIyx7-05i-10" value="汉专制政府的剥削和保护" style="rounded=1;whiteSpace=wrap;html=1;" parent="1" vertex="1">
          <mxGeometry x="400" y="-190" width="160" height="60" as="geometry" />
        </mxCell>
        <mxCell id="zn_b5Ai_2JYmIyx7-05i-26" style="edgeStyle=orthogonalEdgeStyle;rounded=0;orthogonalLoop=1;jettySize=auto;html=1;entryX=0.5;entryY=0;entryDx=0;entryDy=0;" parent="1" source="zn_b5Ai_2JYmIyx7-05i-11" target="zn_b5Ai_2JYmIyx7-05i-12" edge="1">
          <mxGeometry relative="1" as="geometry" />
        </mxCell>
        <mxCell id="zn_b5Ai_2JYmIyx7-05i-11" value="针对商人的压制&lt;br&gt;商贾剥削农民修补损失" style="rounded=1;whiteSpace=wrap;html=1;" parent="1" vertex="1">
          <mxGeometry x="300" y="-90" width="160" height="60" as="geometry" />
        </mxCell>
        <mxCell id="zn_b5Ai_2JYmIyx7-05i-27" style="edgeStyle=orthogonalEdgeStyle;rounded=0;orthogonalLoop=1;jettySize=auto;html=1;entryX=0;entryY=0.5;entryDx=0;entryDy=0;" parent="1" source="zn_b5Ai_2JYmIyx7-05i-12" target="zn_b5Ai_2JYmIyx7-05i-14" edge="1">
          <mxGeometry relative="1" as="geometry" />
        </mxCell>
        <mxCell id="zn_b5Ai_2JYmIyx7-05i-12" value="高利贷流向土地" style="rounded=1;whiteSpace=wrap;html=1;" parent="1" vertex="1">
          <mxGeometry x="320" y="-10" width="120" height="60" as="geometry" />
        </mxCell>
        <mxCell id="zn_b5Ai_2JYmIyx7-05i-28" style="edgeStyle=orthogonalEdgeStyle;rounded=0;orthogonalLoop=1;jettySize=auto;html=1;" parent="1" source="zn_b5Ai_2JYmIyx7-05i-14" target="zn_b5Ai_2JYmIyx7-05i-15" edge="1">
          <mxGeometry relative="1" as="geometry" />
        </mxCell>
        <mxCell id="zn_b5Ai_2JYmIyx7-05i-14" value="大土地占有者：&lt;br&gt;贵族官僚的发展" style="rounded=1;whiteSpace=wrap;html=1;" parent="1" vertex="1">
          <mxGeometry x="500" y="-90" width="160" height="60" as="geometry" />
        </mxCell>
        <mxCell id="zn_b5Ai_2JYmIyx7-05i-41" style="edgeStyle=orthogonalEdgeStyle;rounded=0;orthogonalLoop=1;jettySize=auto;html=1;entryX=0;entryY=0.5;entryDx=0;entryDy=0;" parent="1" source="zn_b5Ai_2JYmIyx7-05i-15" target="zn_b5Ai_2JYmIyx7-05i-16" edge="1">
          <mxGeometry relative="1" as="geometry">
            <Array as="points">
              <mxPoint x="680" y="100" />
              <mxPoint x="680" y="-440" />
            </Array>
          </mxGeometry>
        </mxCell>
        <mxCell id="zn_b5Ai_2JYmIyx7-05i-15" value="小生产者，农民破产&lt;br&gt;社会问题" style="rounded=1;whiteSpace=wrap;html=1;" parent="1" vertex="1">
          <mxGeometry x="400" y="70" width="160" height="60" as="geometry" />
        </mxCell>
        <mxCell id="zn_b5Ai_2JYmIyx7-05i-42" style="edgeStyle=orthogonalEdgeStyle;rounded=0;orthogonalLoop=1;jettySize=auto;html=1;" parent="1" source="zn_b5Ai_2JYmIyx7-05i-16" target="zn_b5Ai_2JYmIyx7-05i-35" edge="1">
          <mxGeometry relative="1" as="geometry" />
        </mxCell>
        <mxCell id="zn_b5Ai_2JYmIyx7-05i-16" value="两汉农民破产情况表" style="rounded=1;whiteSpace=wrap;html=1;" parent="1" vertex="1">
          <mxGeometry x="700" y="-470" width="160" height="60" as="geometry" />
        </mxCell>
        <mxCell id="zn_b5Ai_2JYmIyx7-05i-43" style="edgeStyle=orthogonalEdgeStyle;rounded=0;orthogonalLoop=1;jettySize=auto;html=1;entryX=0.5;entryY=0;entryDx=0;entryDy=0;" parent="1" source="zn_b5Ai_2JYmIyx7-05i-35" target="zn_b5Ai_2JYmIyx7-05i-37" edge="1">
          <mxGeometry relative="1" as="geometry" />
        </mxCell>
        <mxCell id="zn_b5Ai_2JYmIyx7-05i-35" value="度田" style="whiteSpace=wrap;html=1;rounded=1;" parent="1" vertex="1">
          <mxGeometry x="720" y="-390" width="120" height="60" as="geometry" />
        </mxCell>
        <mxCell id="zn_b5Ai_2JYmIyx7-05i-44" style="edgeStyle=orthogonalEdgeStyle;rounded=0;orthogonalLoop=1;jettySize=auto;html=1;entryX=0.5;entryY=0;entryDx=0;entryDy=0;" parent="1" source="zn_b5Ai_2JYmIyx7-05i-37" target="zn_b5Ai_2JYmIyx7-05i-38" edge="1">
          <mxGeometry relative="1" as="geometry" />
        </mxCell>
        <mxCell id="zn_b5Ai_2JYmIyx7-05i-37" value="新的社会关系？&lt;br&gt;地主庄园经济仍需发展" style="rounded=1;whiteSpace=wrap;html=1;" parent="1" vertex="1">
          <mxGeometry x="700" y="-310" width="160" height="60" as="geometry" />
        </mxCell>
        <mxCell id="zn_b5Ai_2JYmIyx7-05i-45" style="edgeStyle=orthogonalEdgeStyle;rounded=0;orthogonalLoop=1;jettySize=auto;html=1;" parent="1" source="zn_b5Ai_2JYmIyx7-05i-38" target="zn_b5Ai_2JYmIyx7-05i-39" edge="1">
          <mxGeometry relative="1" as="geometry" />
        </mxCell>
        <mxCell id="zn_b5Ai_2JYmIyx7-05i-38" value="破产农民的境遇" style="rounded=1;whiteSpace=wrap;html=1;" parent="1" vertex="1">
          <mxGeometry x="730" y="-230" width="100" height="60" as="geometry" />
        </mxCell>
        <mxCell id="zn_b5Ai_2JYmIyx7-05i-39" value="农民起义" style="rounded=1;whiteSpace=wrap;html=1;" parent="1" vertex="1">
          <mxGeometry x="700" y="-150" width="160" height="60" as="geometry" />
        </mxCell>
        <mxCell id="zn_b5Ai_2JYmIyx7-05i-46" value="&lt;span&gt;东汉统治集团内部矛盾的尖锐化&lt;/span&gt;" style="shape=ext;double=1;rounded=1;whiteSpace=wrap;html=1;" parent="1" vertex="1">
          <mxGeometry x="940" y="-370" width="120" height="80" as="geometry" />
        </mxCell>
        <mxCell id="zn_b5Ai_2JYmIyx7-05i-65" style="edgeStyle=orthogonalEdgeStyle;rounded=0;orthogonalLoop=1;jettySize=auto;html=1;entryX=0;entryY=0.5;entryDx=0;entryDy=0;" parent="1" source="zn_b5Ai_2JYmIyx7-05i-47" target="zn_b5Ai_2JYmIyx7-05i-49" edge="1">
          <mxGeometry relative="1" as="geometry">
            <Array as="points">
              <mxPoint x="1220" y="-330" />
              <mxPoint x="1220" y="-670" />
            </Array>
          </mxGeometry>
        </mxCell>
        <mxCell id="zn_b5Ai_2JYmIyx7-05i-47" value="割据条件的形成" style="rounded=1;whiteSpace=wrap;html=1;" parent="1" vertex="1">
          <mxGeometry x="1080" y="-360" width="120" height="60" as="geometry" />
        </mxCell>
        <mxCell id="zn_b5Ai_2JYmIyx7-05i-66" style="edgeStyle=orthogonalEdgeStyle;rounded=0;orthogonalLoop=1;jettySize=auto;html=1;entryX=0.5;entryY=0;entryDx=0;entryDy=0;" parent="1" source="zn_b5Ai_2JYmIyx7-05i-49" target="zn_b5Ai_2JYmIyx7-05i-50" edge="1">
          <mxGeometry relative="1" as="geometry" />
        </mxCell>
        <mxCell id="zn_b5Ai_2JYmIyx7-05i-49" value="外戚 宦官 是皇权的不信任性" style="rounded=1;whiteSpace=wrap;html=1;" parent="1" vertex="1">
          <mxGeometry x="1330" y="-700" width="160" height="60" as="geometry" />
        </mxCell>
        <mxCell id="zn_b5Ai_2JYmIyx7-05i-67" style="edgeStyle=orthogonalEdgeStyle;rounded=0;orthogonalLoop=1;jettySize=auto;html=1;entryX=0.5;entryY=0;entryDx=0;entryDy=0;" parent="1" source="zn_b5Ai_2JYmIyx7-05i-50" target="zn_b5Ai_2JYmIyx7-05i-52" edge="1">
          <mxGeometry relative="1" as="geometry" />
        </mxCell>
        <mxCell id="zn_b5Ai_2JYmIyx7-05i-50" value="东汉外戚出身：功勋阶层" style="rounded=1;whiteSpace=wrap;html=1;" parent="1" vertex="1">
          <mxGeometry x="1240" y="-600" width="160" height="60" as="geometry" />
        </mxCell>
        <mxCell id="zn_b5Ai_2JYmIyx7-05i-68" value="" style="edgeStyle=orthogonalEdgeStyle;rounded=0;orthogonalLoop=1;jettySize=auto;html=1;" parent="1" source="zn_b5Ai_2JYmIyx7-05i-52" target="zn_b5Ai_2JYmIyx7-05i-55" edge="1">
          <mxGeometry relative="1" as="geometry" />
        </mxCell>
        <mxCell id="zn_b5Ai_2JYmIyx7-05i-52" value="外戚的剥削行径" style="rounded=1;whiteSpace=wrap;html=1;" parent="1" vertex="1">
          <mxGeometry x="1260" y="-520" width="120" height="60" as="geometry" />
        </mxCell>
        <mxCell id="zn_b5Ai_2JYmIyx7-05i-69" style="edgeStyle=orthogonalEdgeStyle;rounded=0;orthogonalLoop=1;jettySize=auto;html=1;entryX=0.5;entryY=0;entryDx=0;entryDy=0;" parent="1" source="zn_b5Ai_2JYmIyx7-05i-55" target="zn_b5Ai_2JYmIyx7-05i-56" edge="1">
          <mxGeometry relative="1" as="geometry" />
        </mxCell>
        <mxCell id="zn_b5Ai_2JYmIyx7-05i-55" value="宦官的剥削行径" style="rounded=1;whiteSpace=wrap;html=1;" parent="1" vertex="1">
          <mxGeometry x="1460" y="-520" width="120" height="60" as="geometry" />
        </mxCell>
        <mxCell id="zn_b5Ai_2JYmIyx7-05i-56" value="士夫阶层进阶为世家望族" style="rounded=1;whiteSpace=wrap;html=1;" parent="1" vertex="1">
          <mxGeometry x="1330" y="-420" width="180" height="60" as="geometry" />
        </mxCell>
        <mxCell id="zn_b5Ai_2JYmIyx7-05i-57" value="主观：加强专制" style="rounded=1;whiteSpace=wrap;html=1;" parent="1" vertex="1">
          <mxGeometry x="1330" y="-360" width="90" height="60" as="geometry" />
        </mxCell>
        <mxCell id="zn_b5Ai_2JYmIyx7-05i-58" value="客观：瓦解王朝" style="rounded=1;whiteSpace=wrap;html=1;" parent="1" vertex="1">
          <mxGeometry x="1420" y="-360" width="90" height="60" as="geometry" />
        </mxCell>
        <mxCell id="zn_b5Ai_2JYmIyx7-05i-59" value="对抗外戚权力的无限制膨胀" style="rounded=1;whiteSpace=wrap;html=1;" parent="1" vertex="1">
          <mxGeometry x="1330" y="-300" width="90" height="60" as="geometry" />
        </mxCell>
        <mxCell id="zn_b5Ai_2JYmIyx7-05i-70" value="" style="edgeStyle=orthogonalEdgeStyle;rounded=0;orthogonalLoop=1;jettySize=auto;html=1;" parent="1" source="zn_b5Ai_2JYmIyx7-05i-60" target="zn_b5Ai_2JYmIyx7-05i-62" edge="1">
          <mxGeometry relative="1" as="geometry" />
        </mxCell>
        <mxCell id="zn_b5Ai_2JYmIyx7-05i-60" value="两次党锢之祸" style="rounded=1;whiteSpace=wrap;html=1;" parent="1" vertex="1">
          <mxGeometry x="1330" y="-240" width="180" height="60" as="geometry" />
        </mxCell>
        <mxCell id="zn_b5Ai_2JYmIyx7-05i-71" style="edgeStyle=orthogonalEdgeStyle;rounded=0;orthogonalLoop=1;jettySize=auto;html=1;" parent="1" source="zn_b5Ai_2JYmIyx7-05i-62" target="zn_b5Ai_2JYmIyx7-05i-63" edge="1">
          <mxGeometry relative="1" as="geometry" />
        </mxCell>
        <mxCell id="zn_b5Ai_2JYmIyx7-05i-62" value="宦官替代世家的生态位" style="rounded=1;whiteSpace=wrap;html=1;" parent="1" vertex="1">
          <mxGeometry x="1450" y="-140" width="140" height="60" as="geometry" />
        </mxCell>
        <mxCell id="zn_b5Ai_2JYmIyx7-05i-63" value="灵帝时代的腐败政治" style="rounded=1;whiteSpace=wrap;html=1;" parent="1" vertex="1">
          <mxGeometry x="1460" y="-60" width="120" height="60" as="geometry" />
        </mxCell>
        <mxCell id="zn_b5Ai_2JYmIyx7-05i-72" value="&lt;span&gt;黄巾大起义&lt;/span&gt;" style="shape=ext;double=1;rounded=1;whiteSpace=wrap;html=1;" parent="1" vertex="1">
          <mxGeometry y="440" width="120" height="80" as="geometry" />
        </mxCell>
      </root>
    </mxGraphModel>
  </diagram>
</mxfile>
